# This file uses centimeters as units for non-parametric coordinates.

g default
v -0.797822 0.043798 0.828357
v -0.797822 0.043798 -0.830967
v -0.797822 0.642944 -0.001305
v 0.798610 0.243514 -0.001305
vt 0.512341 0.209401
vt 0.768174 0.561609
vt 0.514291 0.915225
vt 0.455649 0.920954
vt 0.455649 0.072684
vt 0.030695 0.496819
vt 0.455649 0.496819
vt 0.959970 0.670022
vt 0.959970 0.067669
vt 0.658211 0.368845
vn -1.000000 0.000000 0.000000
vn -1.000000 0.000000 0.000000
vn -1.000000 0.000000 0.000000
vn 0.124133 -0.992266 0.000000
vn 0.124133 -0.992266 0.000000
vn 0.124133 -0.992266 0.000000
vn 0.198791 0.794524 -0.573771
vn 0.198791 0.794524 -0.573771
vn 0.198792 0.794524 -0.573771
vn 0.198792 0.794525 0.573771
vn 0.198792 0.794525 0.573771
vn 0.198791 0.794524 0.573771
s off
g pPyramid17
f 1/1/1 3/2/2 2/3/3
f 1/8/4 2/9/5 4/10/6
f 2/5/7 3/7/8 4/6/9
f 3/7/10 1/4/11 4/6/12
